<?xml version="1.0" encoding="UTF-8"?>
<svg xmlns="http://www.w3.org/2000/svg" version="1.1" width="300" height="300" viewBox="0 0 300 300"><rect x="0" y="0" width="300" height="300" fill="#fefefe"/><g transform="scale(6.122)"><g transform="translate(4.000,4.000)"><path fill-rule="evenodd" d="M8 0L8 4L11 4L11 5L10 5L10 7L9 7L9 5L8 5L8 7L9 7L9 8L10 8L10 9L11 9L11 10L8 10L8 9L7 9L7 8L4 8L4 9L7 9L7 10L6 10L6 11L4 11L4 10L3 10L3 9L2 9L2 8L0 8L0 10L2 10L2 12L1 12L1 11L0 11L0 12L1 12L1 14L0 14L0 15L1 15L1 17L2 17L2 18L3 18L3 17L4 17L4 18L5 18L5 19L7 19L7 20L4 20L4 19L3 19L3 20L4 20L4 21L2 21L2 20L1 20L1 19L0 19L0 22L1 22L1 21L2 21L2 22L3 22L3 23L5 23L5 22L6 22L6 23L7 23L7 24L2 24L2 25L4 25L4 26L3 26L3 27L0 27L0 30L1 30L1 28L2 28L2 31L3 31L3 28L4 28L4 29L5 29L5 30L4 30L4 32L0 32L0 33L4 33L4 32L6 32L6 33L7 33L7 32L8 32L8 29L11 29L11 28L8 28L8 29L7 29L7 28L5 28L5 26L6 26L6 27L8 27L8 26L9 26L9 27L12 27L12 26L14 26L14 25L15 25L15 27L14 27L14 28L12 28L12 29L13 29L13 31L12 31L12 32L10 32L10 31L11 31L11 30L9 30L9 32L10 32L10 33L11 33L11 34L10 34L10 36L9 36L9 35L8 35L8 37L9 37L9 39L8 39L8 41L10 41L10 39L11 39L11 40L12 40L12 39L13 39L13 37L14 37L14 41L21 41L21 40L22 40L22 41L23 41L23 40L22 40L22 39L25 39L25 38L26 38L26 39L28 39L28 40L30 40L30 38L31 38L31 37L32 37L32 40L31 40L31 41L33 41L33 40L34 40L34 41L38 41L38 40L36 40L36 37L37 37L37 38L38 38L38 39L39 39L39 41L40 41L40 40L41 40L41 29L36 29L36 28L37 28L37 27L35 27L35 25L34 25L34 24L32 24L32 23L31 23L31 21L32 21L32 19L29 19L29 18L28 18L28 15L29 15L29 17L30 17L30 18L31 18L31 17L32 17L32 18L33 18L33 20L35 20L35 21L33 21L33 22L35 22L35 21L36 21L36 22L37 22L37 23L38 23L38 22L39 22L39 23L41 23L41 21L40 21L40 20L41 20L41 17L40 17L40 19L39 19L39 21L38 21L38 20L37 20L37 19L36 19L36 18L37 18L37 17L38 17L38 18L39 18L39 17L38 17L38 14L37 14L37 13L38 13L38 9L40 9L40 15L39 15L39 16L40 16L40 15L41 15L41 8L37 8L37 9L36 9L36 8L35 8L35 9L34 9L34 10L33 10L33 6L32 6L32 5L30 5L30 4L31 4L31 3L32 3L32 2L33 2L33 1L32 1L32 0L30 0L30 2L26 2L26 3L25 3L25 2L23 2L23 1L24 1L24 0L21 0L21 1L19 1L19 0L18 0L18 1L19 1L19 2L16 2L16 3L14 3L14 2L13 2L13 0L11 0L11 1L10 1L10 3L9 3L9 0ZM15 0L15 1L16 1L16 0ZM25 0L25 1L26 1L26 0ZM27 0L27 1L28 1L28 0ZM11 2L11 3L12 3L12 2ZM20 2L20 3L16 3L16 4L15 4L15 5L14 5L14 6L13 6L13 4L14 4L14 3L13 3L13 4L12 4L12 6L11 6L11 7L12 7L12 8L11 8L11 9L12 9L12 8L13 8L13 9L14 9L14 6L15 6L15 7L16 7L16 5L17 5L17 7L18 7L18 9L19 9L19 10L18 10L18 11L19 11L19 13L17 13L17 12L15 12L15 13L10 13L10 12L11 12L11 11L8 11L8 10L7 10L7 11L6 11L6 12L7 12L7 13L4 13L4 12L3 12L3 13L4 13L4 14L7 14L7 13L9 13L9 14L8 14L8 15L2 15L2 14L1 14L1 15L2 15L2 16L4 16L4 17L5 17L5 16L7 16L7 17L6 17L6 18L8 18L8 19L9 19L9 18L10 18L10 17L11 17L11 16L12 16L12 15L13 15L13 18L12 18L12 19L10 19L10 20L8 20L8 21L6 21L6 22L7 22L7 23L8 23L8 22L9 22L9 21L10 21L10 24L8 24L8 25L10 25L10 24L11 24L11 25L12 25L12 24L13 24L13 25L14 25L14 24L15 24L15 25L16 25L16 26L17 26L17 27L18 27L18 28L19 28L19 29L20 29L20 30L19 30L19 32L20 32L20 34L18 34L18 33L17 33L17 31L16 31L16 29L17 29L17 30L18 30L18 29L17 29L17 28L16 28L16 27L15 27L15 29L14 29L14 31L13 31L13 32L12 32L12 33L13 33L13 34L12 34L12 35L11 35L11 37L10 37L10 38L12 38L12 37L13 37L13 34L14 34L14 31L15 31L15 32L16 32L16 34L17 34L17 35L18 35L18 37L17 37L17 36L16 36L16 35L14 35L14 37L15 37L15 38L16 38L16 40L17 40L17 39L18 39L18 40L19 40L19 39L20 39L20 40L21 40L21 38L23 38L23 36L22 36L22 37L20 37L20 38L19 38L19 35L22 35L22 34L21 34L21 33L22 33L22 32L21 32L21 31L22 31L22 29L24 29L24 28L22 28L22 29L20 29L20 28L21 28L21 27L22 27L22 26L23 26L23 24L22 24L22 25L21 25L21 26L20 26L20 25L19 25L19 24L20 24L20 22L21 22L21 23L22 23L22 22L23 22L23 21L24 21L24 20L25 20L25 22L24 22L24 23L25 23L25 25L24 25L24 26L25 26L25 28L26 28L26 29L28 29L28 31L27 31L27 30L26 30L26 31L25 31L25 30L24 30L24 31L23 31L23 33L24 33L24 36L25 36L25 37L26 37L26 38L28 38L28 37L29 37L29 38L30 38L30 37L29 37L29 35L30 35L30 36L31 36L31 34L28 34L28 37L26 37L26 36L27 36L27 33L29 33L29 31L30 31L30 32L31 32L31 33L32 33L32 31L34 31L34 32L35 32L35 31L34 31L34 29L35 29L35 30L36 30L36 29L35 29L35 28L33 28L33 30L32 30L32 29L30 29L30 30L29 30L29 29L28 29L28 28L27 28L27 26L25 26L25 25L26 25L26 24L27 24L27 25L29 25L29 26L28 26L28 27L30 27L30 28L32 28L32 25L31 25L31 24L30 24L30 25L29 25L29 23L30 23L30 22L29 22L29 19L26 19L26 16L27 16L27 14L26 14L26 15L25 15L25 13L26 13L26 12L27 12L27 13L28 13L28 14L29 14L29 15L30 15L30 17L31 17L31 15L32 15L32 17L33 17L33 18L34 18L34 17L35 17L35 18L36 18L36 17L37 17L37 15L36 15L36 16L34 16L34 15L35 15L35 14L36 14L36 13L37 13L37 11L36 11L36 13L35 13L35 10L34 10L34 12L33 12L33 10L32 10L32 9L31 9L31 8L32 8L32 6L31 6L31 8L30 8L30 9L29 9L29 8L27 8L27 7L28 7L28 6L29 6L29 7L30 7L30 5L28 5L28 4L27 4L27 3L26 3L26 6L25 6L25 3L24 3L24 5L23 5L23 2L22 2L22 3L21 3L21 2ZM29 3L29 4L30 4L30 3ZM19 4L19 6L18 6L18 7L19 7L19 9L20 9L20 10L21 10L21 11L20 11L20 12L21 12L21 13L20 13L20 15L21 15L21 16L19 16L19 15L18 15L18 14L17 14L17 13L16 13L16 15L17 15L17 16L15 16L15 14L14 14L14 17L15 17L15 18L13 18L13 21L12 21L12 22L11 22L11 24L12 24L12 23L13 23L13 22L15 22L15 24L16 24L16 25L18 25L18 26L19 26L19 25L18 25L18 23L19 23L19 22L20 22L20 21L21 21L21 22L22 22L22 18L23 18L23 20L24 20L24 19L25 19L25 18L24 18L24 17L22 17L22 16L23 16L23 15L24 15L24 13L25 13L25 11L24 11L24 9L25 9L25 8L24 8L24 9L23 9L23 11L22 11L22 10L21 10L21 9L22 9L22 8L23 8L23 6L22 6L22 5L20 5L20 4ZM12 6L12 7L13 7L13 6ZM19 6L19 7L20 7L20 6ZM21 6L21 7L22 7L22 6ZM24 6L24 7L25 7L25 6ZM26 6L26 7L27 7L27 6ZM15 8L15 9L16 9L16 10L17 10L17 9L16 9L16 8ZM26 8L26 10L27 10L27 12L29 12L29 13L30 13L30 11L31 11L31 12L32 12L32 13L33 13L33 14L32 14L32 15L33 15L33 14L35 14L35 13L33 13L33 12L32 12L32 11L31 11L31 10L28 10L28 9L27 9L27 8ZM12 10L12 12L14 12L14 11L15 11L15 10ZM7 11L7 12L8 12L8 11ZM23 12L23 13L21 13L21 15L22 15L22 14L23 14L23 13L24 13L24 12ZM9 14L9 15L8 15L8 17L9 17L9 15L10 15L10 16L11 16L11 15L10 15L10 14ZM18 16L18 17L16 17L16 18L17 18L17 19L18 19L18 20L17 20L17 21L16 21L16 19L14 19L14 21L15 21L15 22L16 22L16 23L17 23L17 22L18 22L18 21L19 21L19 19L20 19L20 20L21 20L21 18L22 18L22 17L21 17L21 18L20 18L20 17L19 17L19 16ZM33 16L33 17L34 17L34 16ZM18 18L18 19L19 19L19 18ZM35 19L35 20L36 20L36 21L37 21L37 22L38 22L38 21L37 21L37 20L36 20L36 19ZM10 20L10 21L11 21L11 20ZM26 20L26 23L28 23L28 20ZM4 21L4 22L5 22L5 21ZM39 21L39 22L40 22L40 21ZM0 23L0 25L1 25L1 23ZM35 23L35 24L36 24L36 23ZM37 24L37 25L36 25L36 26L38 26L38 27L39 27L39 28L40 28L40 27L41 27L41 24L40 24L40 25L38 25L38 24ZM6 25L6 26L7 26L7 25ZM30 25L30 26L31 26L31 25ZM39 26L39 27L40 27L40 26ZM6 29L6 30L7 30L7 29ZM20 30L20 31L21 31L21 30ZM30 30L30 31L31 31L31 30ZM37 30L37 31L36 31L36 32L37 32L37 33L38 33L38 34L37 34L37 37L38 37L38 38L39 38L39 39L40 39L40 38L39 38L39 35L38 35L38 34L40 34L40 30L39 30L39 31L38 31L38 30ZM6 31L6 32L7 32L7 31ZM24 32L24 33L25 33L25 32ZM8 33L8 34L9 34L9 33ZM33 33L33 36L36 36L36 33ZM34 34L34 35L35 35L35 34ZM15 36L15 37L16 37L16 36ZM34 37L34 39L35 39L35 37ZM24 40L24 41L25 41L25 40ZM0 0L0 7L7 7L7 0ZM1 1L1 6L6 6L6 1ZM2 2L2 5L5 5L5 2ZM41 0L34 0L34 7L41 7ZM40 1L35 1L35 6L40 6ZM39 2L36 2L36 5L39 5ZM0 41L7 41L7 34L0 34ZM1 40L6 40L6 35L1 35ZM2 39L5 39L5 36L2 36Z" fill="#000000"/></g></g></svg>
