<?xml version="1.0" encoding="UTF-8"?>
<svg xmlns="http://www.w3.org/2000/svg" version="1.1" width="300" height="300" viewBox="0 0 300 300"><rect x="0" y="0" width="300" height="300" fill="#fefefe"/><g transform="scale(6.122)"><g transform="translate(4.000,4.000)"><path fill-rule="evenodd" d="M9 0L9 1L8 1L8 2L9 2L9 3L8 3L8 4L9 4L9 3L10 3L10 2L11 2L11 4L12 4L12 5L11 5L11 6L10 6L10 5L8 5L8 7L9 7L9 8L6 8L6 9L5 9L5 8L0 8L0 9L1 9L1 13L0 13L0 14L1 14L1 15L2 15L2 16L0 16L0 18L1 18L1 19L0 19L0 24L1 24L1 22L3 22L3 21L4 21L4 20L2 20L2 18L1 18L1 17L2 17L2 16L3 16L3 17L7 17L7 18L6 18L6 19L8 19L8 17L9 17L9 19L10 19L10 21L11 21L11 18L12 18L12 21L13 21L13 17L14 17L14 18L15 18L15 19L14 19L14 20L15 20L15 21L14 21L14 22L9 22L9 23L11 23L11 25L10 25L10 24L9 24L9 26L6 26L6 27L10 27L10 26L13 26L13 28L14 28L14 29L15 29L15 33L14 33L14 32L13 32L13 31L12 31L12 33L10 33L10 32L11 32L11 29L12 29L12 30L13 30L13 29L12 29L12 28L8 28L8 29L7 29L7 28L6 28L6 29L4 29L4 28L5 28L5 26L4 26L4 27L3 27L3 28L2 28L2 29L1 29L1 28L0 28L0 33L1 33L1 30L3 30L3 33L7 33L7 32L6 32L6 31L7 31L7 30L8 30L8 29L9 29L9 30L10 30L10 31L8 31L8 32L9 32L9 33L8 33L8 35L10 35L10 34L13 34L13 33L14 33L14 34L15 34L15 35L14 35L14 36L15 36L15 37L14 37L14 38L11 38L11 37L10 37L10 36L8 36L8 41L12 41L12 39L14 39L14 38L17 38L17 39L16 39L16 40L17 40L17 41L18 41L18 40L19 40L19 38L17 38L17 37L16 37L16 36L17 36L17 35L16 35L16 34L17 34L17 33L18 33L18 35L19 35L19 36L18 36L18 37L19 37L19 36L20 36L20 35L19 35L19 34L20 34L20 33L19 33L19 32L20 32L20 31L18 31L18 32L17 32L17 33L16 33L16 31L17 31L17 30L20 30L20 29L21 29L21 32L22 32L22 33L21 33L21 34L22 34L22 35L21 35L21 36L23 36L23 34L25 34L25 35L24 35L24 37L20 37L20 38L21 38L21 40L20 40L20 41L21 41L21 40L22 40L22 41L24 41L24 39L23 39L23 38L24 38L24 37L27 37L27 35L28 35L28 34L27 34L27 35L26 35L26 34L25 34L25 33L26 33L26 32L24 32L24 33L23 33L23 32L22 32L22 31L23 31L23 30L24 30L24 31L26 31L26 30L24 30L24 29L28 29L28 30L27 30L27 33L28 33L28 32L29 32L29 31L30 31L30 32L31 32L31 31L30 31L30 30L32 30L32 31L33 31L33 32L32 32L32 34L31 34L31 33L30 33L30 34L31 34L31 36L32 36L32 37L30 37L30 36L28 36L28 38L27 38L27 41L31 41L31 40L33 40L33 41L37 41L37 40L38 40L38 41L39 41L39 40L40 40L40 39L39 39L39 40L38 40L38 39L37 39L37 38L38 38L38 37L40 37L40 38L41 38L41 37L40 37L40 36L41 36L41 35L40 35L40 34L41 34L41 33L39 33L39 32L40 32L40 31L39 31L39 30L38 30L38 31L37 31L37 29L39 29L39 28L37 28L37 25L36 25L36 28L37 28L37 29L34 29L34 28L35 28L35 27L34 27L34 26L35 26L35 25L34 25L34 26L32 26L32 23L31 23L31 24L29 24L29 25L28 25L28 24L27 24L27 23L30 23L30 22L26 22L26 24L24 24L24 25L23 25L23 23L22 23L22 21L23 21L23 22L25 22L25 21L26 21L26 20L23 20L23 19L22 19L22 17L23 17L23 18L24 18L24 19L25 19L25 18L26 18L26 19L30 19L30 20L29 20L29 21L30 21L30 20L32 20L32 21L31 21L31 22L32 22L32 21L33 21L33 22L34 22L34 24L36 24L36 23L37 23L37 22L39 22L39 23L40 23L40 24L38 24L38 25L40 25L40 26L38 26L38 27L40 27L40 26L41 26L41 23L40 23L40 22L41 22L41 21L40 21L40 20L41 20L41 19L40 19L40 18L41 18L41 17L40 17L40 16L41 16L41 15L39 15L39 14L41 14L41 12L40 12L40 10L41 10L41 9L40 9L40 8L39 8L39 9L38 9L38 8L37 8L37 9L36 9L36 8L35 8L35 9L34 9L34 8L33 8L33 12L32 12L32 11L30 11L30 12L28 12L28 10L32 10L32 9L31 9L31 8L29 8L29 9L28 9L28 10L27 10L27 8L25 8L25 4L26 4L26 3L24 3L24 4L23 4L23 3L22 3L22 2L21 2L21 1L22 1L22 0L20 0L20 2L21 2L21 3L20 3L20 4L19 4L19 3L18 3L18 5L17 5L17 4L16 4L16 3L15 3L15 2L16 2L16 1L15 1L15 0L14 0L14 1L15 1L15 2L14 2L14 3L15 3L15 4L12 4L12 3L13 3L13 0L11 0L11 1L10 1L10 0ZM17 0L17 1L19 1L19 0ZM23 0L23 1L24 1L24 2L26 2L26 1L27 1L27 4L28 4L28 2L30 2L30 3L29 3L29 6L28 6L28 5L27 5L27 6L26 6L26 7L27 7L27 6L28 6L28 7L29 7L29 6L30 6L30 7L31 7L31 5L32 5L32 4L31 4L31 3L32 3L32 2L31 2L31 0L30 0L30 1L29 1L29 0L28 0L28 1L27 1L27 0L26 0L26 1L24 1L24 0ZM32 0L32 1L33 1L33 0ZM21 4L21 5L18 5L18 6L17 6L17 5L14 5L14 6L13 6L13 8L12 8L12 6L11 6L11 8L10 8L10 9L9 9L9 10L8 10L8 9L6 9L6 10L5 10L5 9L3 9L3 10L2 10L2 11L3 11L3 12L5 12L5 11L6 11L6 12L8 12L8 13L10 13L10 14L9 14L9 15L10 15L10 16L9 16L9 17L10 17L10 16L11 16L11 17L13 17L13 16L14 16L14 17L15 17L15 18L16 18L16 19L17 19L17 20L16 20L16 21L17 21L17 22L14 22L14 23L12 23L12 25L13 25L13 24L14 24L14 25L15 25L15 26L16 26L16 23L17 23L17 24L18 24L18 23L17 23L17 22L19 22L19 23L20 23L20 21L21 21L21 17L22 17L22 16L21 16L21 15L20 15L20 14L21 14L21 13L25 13L25 16L28 16L28 17L26 17L26 18L28 18L28 17L29 17L29 18L30 18L30 17L32 17L32 18L31 18L31 19L32 19L32 20L33 20L33 17L35 17L35 19L36 19L36 20L34 20L34 21L38 21L38 20L39 20L39 18L40 18L40 17L38 17L38 16L39 16L39 15L38 15L38 14L39 14L39 13L38 13L38 12L39 12L39 10L38 10L38 9L37 9L37 10L34 10L34 11L35 11L35 12L34 12L34 13L32 13L32 14L30 14L30 15L29 15L29 13L28 13L28 12L27 12L27 10L26 10L26 9L25 9L25 8L24 8L24 10L23 10L23 9L22 9L22 8L23 8L23 7L24 7L24 5L23 5L23 4ZM21 5L21 6L20 6L20 7L19 7L19 6L18 6L18 8L20 8L20 10L22 10L22 9L21 9L21 8L22 8L22 7L23 7L23 6L22 6L22 5ZM9 6L9 7L10 7L10 6ZM14 6L14 7L15 7L15 6ZM16 6L16 8L17 8L17 6ZM21 6L21 7L20 7L20 8L21 8L21 7L22 7L22 6ZM32 6L32 7L33 7L33 6ZM13 8L13 11L12 11L12 9L11 9L11 11L10 11L10 10L9 10L9 11L8 11L8 10L6 10L6 11L8 11L8 12L9 12L9 11L10 11L10 12L14 12L14 13L15 13L15 17L16 17L16 18L17 18L17 17L18 17L18 19L19 19L19 20L18 20L18 21L20 21L20 19L19 19L19 18L20 18L20 17L19 17L19 14L20 14L20 13L17 13L17 12L20 12L20 11L18 11L18 9L17 9L17 10L14 10L14 8ZM24 10L24 11L21 11L21 12L25 12L25 13L26 13L26 12L25 12L25 11L26 11L26 10ZM37 10L37 11L36 11L36 12L38 12L38 10ZM14 11L14 12L15 12L15 11ZM2 13L2 15L6 15L6 16L7 16L7 17L8 17L8 16L7 16L7 15L6 15L6 14L7 14L7 13ZM12 13L12 14L13 14L13 15L12 15L12 16L13 16L13 15L14 15L14 14L13 14L13 13ZM16 13L16 14L17 14L17 15L16 15L16 17L17 17L17 16L18 16L18 14L17 14L17 13ZM34 13L34 15L35 15L35 16L37 16L37 13L36 13L36 14L35 14L35 13ZM10 14L10 15L11 15L11 14ZM23 14L23 15L24 15L24 14ZM26 14L26 15L28 15L28 14ZM30 15L30 16L31 16L31 15ZM23 16L23 17L24 17L24 16ZM32 16L32 17L33 17L33 16ZM36 17L36 19L37 19L37 18L38 18L38 17ZM6 20L6 21L5 21L5 22L4 22L4 23L3 23L3 24L5 24L5 25L8 25L8 24L6 24L6 23L7 23L7 22L6 22L6 21L9 21L9 20ZM27 20L27 21L28 21L28 20ZM19 24L19 25L20 25L20 26L18 26L18 27L20 27L20 28L17 28L17 27L16 27L16 28L17 28L17 29L16 29L16 30L17 30L17 29L20 29L20 28L21 28L21 29L24 29L24 28L23 28L23 27L24 27L24 26L21 26L21 25L22 25L22 24L21 24L21 25L20 25L20 24ZM0 25L0 26L1 26L1 25ZM2 25L2 26L3 26L3 25ZM25 25L25 26L26 26L26 27L25 27L25 28L27 28L27 26L26 26L26 25ZM29 25L29 26L28 26L28 28L30 28L30 29L32 29L32 30L33 30L33 31L35 31L35 32L37 32L37 31L35 31L35 30L34 30L34 29L32 29L32 26L31 26L31 27L29 27L29 26L30 26L30 25ZM14 27L14 28L15 28L15 27ZM21 27L21 28L22 28L22 27ZM40 28L40 30L41 30L41 28ZM3 29L3 30L4 30L4 29ZM6 29L6 30L5 30L5 31L6 31L6 30L7 30L7 29ZM28 30L28 31L29 31L29 30ZM38 31L38 32L39 32L39 31ZM9 33L9 34L10 34L10 33ZM15 33L15 34L16 34L16 33ZM22 33L22 34L23 34L23 33ZM33 33L33 36L36 36L36 33ZM37 33L37 36L40 36L40 35L38 35L38 33ZM34 34L34 35L35 35L35 34ZM25 35L25 36L26 36L26 35ZM12 36L12 37L13 37L13 36ZM9 37L9 38L10 38L10 37ZM29 37L29 38L30 38L30 39L28 39L28 40L30 40L30 39L32 39L32 38L35 38L35 39L34 39L34 40L35 40L35 39L36 39L36 38L37 38L37 37L36 37L36 38L35 38L35 37L32 37L32 38L30 38L30 37ZM17 39L17 40L18 40L18 39ZM13 40L13 41L14 41L14 40ZM25 40L25 41L26 41L26 40ZM0 0L0 7L7 7L7 0ZM1 1L1 6L6 6L6 1ZM2 2L2 5L5 5L5 2ZM41 0L34 0L34 7L41 7ZM40 1L35 1L35 6L40 6ZM39 2L36 2L36 5L39 5ZM0 41L7 41L7 34L0 34ZM1 40L6 40L6 35L1 35ZM2 39L5 39L5 36L2 36Z" fill="#000000"/></g></g></svg>
